<?xml version="1.0" standalone="no"?>
<!DOCTYPE svg PUBLIC "-//W3C//DTD SVG 20010904//EN"
 "http://www.w3.org/TR/2001/REC-SVG-20010904/DTD/svg10.dtd">
<svg version="1.0" xmlns="http://www.w3.org/2000/svg"
 width="1504.000000pt" height="1504.000000pt" viewBox="0 0 1504.000000 1504.000000"
 preserveAspectRatio="xMidYMid meet">
<metadata>
Created by potrace 1.11, written by Peter Selinger 2001-2013
</metadata>
<g transform="translate(0.000000,1504.000000) scale(0.100000,-0.100000)"
fill="#000000" stroke="none">
<path d="M11721 14029 c-99 -40 -388 -396 -665 -821 -52 -79 -90 -127 -118
-147 -122 -85 -307 -303 -452 -531 -104 -164 -232 -447 -286 -630 l-22 -75
-248 -250 c-136 -137 -298 -302 -359 -365 -62 -63 -209 -213 -328 -332 -185
-187 -218 -216 -232 -205 -9 6 -31 25 -49 42 -18 16 -38 29 -43 27 -6 -1 -8 1
-5 6 7 12 -68 84 -79 75 -4 -5 -5 -3 -2 3 7 12 -41 51 -55 46 -5 -1 -7 2 -5 6
3 10 -34 46 -93 92 -25 19 -54 43 -64 52 -10 10 -24 15 -29 11 -6 -3 -7 -1 -4
4 6 10 -75 77 -185 156 -22 15 -45 32 -51 37 -46 38 -88 67 -210 148 -75 51
-140 92 -143 92 -3 0 -32 18 -64 40 -32 22 -61 40 -64 40 -2 0 -42 22 -88 48
-46 27 -98 55 -115 63 -18 7 -33 17 -33 21 0 5 -4 8 -10 8 -5 0 -62 26 -127
58 -112 55 -327 152 -348 157 -5 1 -32 12 -59 24 -27 12 -56 23 -65 24 -9 2
-25 8 -36 14 -18 10 -199 70 -365 121 -184 57 -512 129 -725 158 -16 2 -48 7
-70 10 -22 3 -60 7 -85 10 -25 2 -61 7 -80 9 -203 26 -719 26 -955 -1 -594
-66 -1097 -209 -1600 -454 -219 -107 -333 -172 -535 -305 -706 -466 -1281
-1124 -1671 -1910 -82 -165 -122 -253 -164 -362 -16 -40 -32 -73 -37 -73 -5 0
-7 -4 -4 -9 5 -8 -14 -65 -47 -141 -6 -14 -11 -27 -12 -30 -20 -76 -40 -130
-47 -130 -5 0 -7 -4 -4 -8 3 -5 -4 -35 -14 -68 -10 -32 -19 -53 -19 -46 -1 6
-6 12 -12 12 -5 0 -8 -3 -6 -7 3 -5 -6 -9 -19 -9 -13 -1 -22 2 -19 6 3 5 0 12
-6 16 -7 4 -9 3 -5 -4 3 -6 2 -13 -4 -17 -5 -3 -10 0 -11 7 0 7 -4 4 -9 -7 -8
-18 -9 -18 -9 -2 -1 10 -5 16 -10 13 -5 -4 -12 0 -15 6 -3 7 -4 4 -3 -6 1 -10
-3 -21 -10 -23 -8 -3 -11 3 -8 18 2 12 1 18 -3 15 -4 -4 -8 -12 -8 -17 -1 -5
-3 -11 -4 -14 -1 -3 -3 -8 -4 -12 -1 -5 -5 -14 -10 -22 -7 -10 -5 -12 5 -7 8
4 3 -2 -11 -14 -14 -12 -19 -19 -12 -15 17 9 15 -10 -2 -24 -8 -7 -13 -23 -11
-36 1 -14 -2 -25 -7 -25 -5 0 -8 -8 -7 -17 3 -32 -1 -44 -11 -38 -5 3 -11 -3
-11 -14 -2 -30 -3 -34 -13 -50 -7 -10 -5 -12 5 -7 8 4 6 1 -3 -7 -14 -11 -15
-16 -5 -27 10 -10 9 -11 -2 -5 -11 6 -13 3 -9 -13 4 -14 2 -20 -5 -15 -6 4 -8
0 -4 -10 4 -10 1 -17 -5 -17 -6 0 -8 -3 -5 -7 4 -3 2 -12 -4 -19 -6 -8 -9 -21
-5 -29 3 -8 0 -15 -5 -15 -6 0 -9 -9 -6 -20 3 -10 0 -21 -7 -23 -8 -3 -8 -8 1
-19 11 -12 9 -18 -7 -33 -22 -20 -28 -50 -7 -40 6 4 5 1 -3 -7 -9 -7 -15 -22
-15 -33 0 -11 -3 -22 -7 -25 -4 -3 -9 -27 -10 -52 -2 -25 -7 -44 -12 -41 -5 3
-7 -10 -4 -30 2 -21 0 -33 -6 -30 -5 4 -7 -1 -3 -9 3 -9 3 -19 -1 -22 -3 -4
-7 -14 -9 -24 -11 -62 -16 -101 -17 -129 0 -17 -4 -29 -9 -26 -5 3 -7 0 -5 -8
3 -8 1 -22 -4 -31 -6 -12 -5 -18 3 -18 8 0 8 -4 1 -13 -6 -7 -11 -22 -11 -32
0 -11 -3 -40 -7 -65 -4 -25 -8 -73 -8 -107 -1 -33 -4 -59 -7 -57 -11 6 -15
-75 -6 -93 6 -10 6 -14 0 -10 -6 4 -10 -21 -11 -61 -1 -37 -4 -77 -6 -89 -3
-13 0 -25 5 -29 7 -4 7 -10 0 -18 -16 -19 -6 -583 14 -776 2 -19 4 -35 5 -35
1 0 3 -16 4 -35 7 -93 19 -190 25 -190 3 0 6 -15 7 -32 0 -18 4 -51 7 -73 4
-22 10 -60 13 -85 3 -25 10 -46 14 -48 4 -2 6 -11 4 -20 -3 -9 5 -57 16 -107
12 -49 23 -103 26 -120 31 -169 176 -642 264 -855 252 -616 518 -1076 896
-1552 421 -529 966 -1008 1539 -1350 183 -109 337 -190 569 -297 97 -46 395
-163 446 -176 3 -1 12 -5 20 -8 24 -10 116 -38 131 -40 8 -2 19 -5 24 -9 19
-11 230 -68 263 -71 17 -1 32 -4 32 -7 0 -3 28 -12 63 -19 34 -7 80 -16 102
-21 22 -5 56 -12 75 -16 19 -3 55 -9 80 -14 114 -20 201 -31 209 -25 5 3 11 1
13 -4 1 -6 44 -12 93 -15 50 -2 98 -7 108 -11 9 -4 33 -5 52 -3 19 2 35 2 35
-2 0 -3 16 -5 35 -6 18 0 31 4 28 9 -3 5 3 5 13 -1 11 -5 44 -10 74 -12 30 -1
66 -2 80 -3 14 -2 31 2 38 7 7 5 12 4 12 -3 0 -8 5 -9 19 -1 13 7 22 7 26 0 3
-5 11 -10 16 -10 6 0 8 4 5 8 -3 5 1 9 9 9 8 0 15 -4 15 -8 0 -8 55 -4 70 6 6
3 10 0 10 -7 0 -10 2 -10 9 1 6 9 11 10 15 2 5 -7 14 -8 24 -2 9 4 23 6 31 3
9 -3 11 0 6 9 -6 11 -5 12 6 1 15 -14 33 -17 25 -4 -3 5 1 9 9 9 8 0 12 -4 9
-9 -3 -4 8 -6 23 -3 15 2 127 7 248 10 279 7 346 11 580 40 1315 164 2480 863
3263 1958 542 758 889 1732 957 2682 4 50 9 106 11 125 6 45 6 667 0 700 -2
14 -7 70 -11 125 -8 110 -8 116 -30 290 -48 373 -133 753 -250 1110 -56 170
-97 279 -107 283 -5 2 -6 7 -3 12 7 12 -36 110 -46 104 -5 -3 -6 2 -3 11 4 8
1 21 -5 29 -6 7 -8 16 -4 19 3 4 2 7 -3 7 -5 0 -11 10 -11 22 -1 13 -9 28 -17
34 -29 21 -11 34 244 174 69 38 1052 585 1180 657 379 213 518 286 549 290
384 41 707 132 1061 296 41 19 120 47 175 61 406 109 862 271 1085 387 148 77
186 145 116 207 -43 37 -112 63 -296 111 -94 25 -145 43 -145 51 0 7 73 54
161 104 89 50 190 110 225 133 87 58 217 170 255 220 35 46 35 73 1 139 -34
66 -65 70 -212 27 -49 -15 -98 -26 -107 -25 -10 0 -18 -3 -18 -9 0 -5 -3 -8
-7 -8 -5 1 -10 0 -13 -1 -3 -1 -13 -3 -22 -5 -27 -5 -148 -69 -148 -78 0 -4
-4 -5 -10 -2 -5 3 -20 -1 -32 -8 -19 -12 -96 -32 -106 -28 -2 1 -20 -15 -40
-36 -45 -46 -77 -67 -117 -77 -16 -4 -39 -16 -50 -26 -11 -10 -42 -30 -69 -44
-27 -14 -54 -30 -60 -36 -9 -7 -24 39 -56 168 -86 349 -141 491 -220 573 -100
105 -220 83 -416 -73 -374 -299 -729 -799 -1113 -1567 l-100 -199 -457 -261
c-251 -144 -458 -260 -459 -259 -1 2 -7 17 -14 35 -37 92 -198 206 -588 417
-90 48 -163 89 -163 90 0 12 119 120 207 189 214 167 303 320 248 427 -23 45
-41 50 -101 30 -56 -19 -64 -18 -64 12 0 17 -5 19 -36 15 -20 -3 -41 -11 -45
-19 -6 -9 -9 -9 -9 -1 0 7 -7 10 -15 7 -8 -4 -13 -10 -10 -14 3 -4 -3 -7 -13
-6 -9 0 -16 -5 -14 -12 1 -8 -2 -11 -7 -8 -11 7 -78 -22 -99 -42 -8 -6 -22
-17 -33 -23 -11 -5 -17 -14 -14 -19 3 -6 0 -8 -7 -5 -7 3 -48 -24 -92 -59 -43
-35 -89 -66 -101 -68 -20 -4 -23 -1 -20 21 9 78 20 378 19 526 -1 189 -18 269
-61 290 -21 11 -14 19 115 147 l137 135 234 38 c844 136 1426 341 1811 637
187 143 213 271 86 420 -69 80 -178 160 -506 372 l-75 49 68 71 c37 39 144
152 239 250 182 191 270 301 312 390 28 60 32 96 15 145 -14 39 -35 40 -84 1
-20 -16 -41 -27 -46 -24 -5 3 -9 27 -9 55 0 27 -4 49 -9 49 -21 0 -110 -54
-104 -63 3 -6 1 -7 -6 -3 -10 6 -109 -57 -131 -84 -3 -3 -33 -30 -67 -59 -35
-30 -60 -58 -56 -64 3 -5 1 -7 -4 -4 -6 4 -61 -45 -123 -107 -98 -100 -150
-140 -150 -118 0 4 7 61 15 127 18 144 21 312 6 358 -7 20 -22 39 -37 46 -14
6 -26 11 -27 10 -1 0 -13 -5 -26 -10z m-2151 -3323 c0 -2 -7 -7 -16 -10 -8 -3
-12 -2 -9 4 6 10 25 14 25 6z m15 -46 c3 -5 1 -10 -4 -10 -6 0 -11 5 -11 10 0
6 2 10 4 10 3 0 8 -4 11 -10z m-120 -160 c3 -5 1 -10 -4 -10 -6 0 -11 5 -11
10 0 6 2 10 4 10 3 0 8 -4 11 -10z m-131 -18 c3 -5 -1 -9 -9 -9 -8 0 -12 4 -9
9 3 4 7 8 9 8 2 0 6 -4 9 -8z m96 -16 c0 -3 -4 -8 -10 -11 -5 -3 -10 -1 -10 4
0 6 5 11 10 11 6 0 10 -2 10 -4z m-127 -61 c-3 -9 -8 -14 -10 -11 -3 3 -2 9 2
15 9 16 15 13 8 -4z m102 -34 c3 -5 2 -12 -3 -15 -5 -3 -9 1 -9 9 0 17 3 19
12 6z m1114 -1218 c14 11 14 10 2 -6 -10 -12 -17 -15 -24 -8 -7 7 -16 7 -26
-2 -14 -11 -14 -10 -2 6 10 12 17 15 24 8 7 -7 16 -7 26 2z m-115 -43 c-5 -5
-10 3 -11 18 -1 22 0 24 9 8 6 -10 6 -22 2 -26z m-34 16 c0 -2 -7 -7 -16 -10
-8 -3 -12 -2 -9 4 6 10 25 14 25 6z m124 -4 c3 -5 -1 -9 -9 -9 -8 0 -12 4 -9
9 3 4 7 8 9 8 2 0 6 -4 9 -8z m-244 -22 c0 -5 -5 -10 -11 -10 -5 0 -7 5 -4 10
3 6 8 10 11 10 2 0 4 -4 4 -10z m100 -3 c0 -2 -8 -11 -18 -20 -15 -14 -19 -15
-19 -2 0 8 4 12 8 9 4 -2 10 0 14 6 6 10 15 14 15 7z m-95 -97 c-3 -5 -12 -10
-18 -10 -7 0 -6 4 3 10 19 12 23 12 15 0z"/>
<path d="M220 8199 c0 -5 5 -7 10 -4 6 3 10 8 10 11 0 2 -4 4 -10 4 -5 0 -10
-5 -10 -11z"/>
</g>
</svg>
